<svg xmlns="http://www.w3.org/2000/svg" role="img" viewBox="-0.18 -0.93 399.36 76.11"><title>cncf-color-bg.svg</title><style>svg {enable-background:new 0 0 399.1 76.1}</style><path d="M98.9 33.4c1.5 0 2.9-.3 4.3-.9 1.3-.6 2.5-1.6 3.4-2.8l4.1 4.2c-3.2 3.6-6.9 5.4-11.3 5.4-2 .1-3.9-.2-5.8-1-1.8-.7-3.5-1.8-5-3.1-1.4-1.3-2.5-3-3.2-4.7-.7-1.8-1.1-3.7-1-5.6-.1-1.9.3-3.9 1-5.7.7-1.8 1.8-3.4 3.2-4.8 1.5-1.4 3.3-2.5 5.2-3.2 1.9-.7 4-1 6.1-.9 2.1.1 4.1.6 6 1.5 1.9.9 3.5 2.2 4.9 3.8l-3.9 4.5c-.9-1.2-2-2.1-3.3-2.7-1.3-.6-2.7-1-4.2-1-2.2 0-4.4.8-6.1 2.3-.9.8-1.5 1.8-2 2.9-.4 1.1-.6 2.3-.6 3.4-.1 1.2.1 2.3.5 3.4s1 2.1 1.9 2.9c1.6 1.3 3.7 2.1 5.8 2.1zm16.6 5.5V10.7h6.3v22.6h12.1v5.6h-18.4zm46-3.9c-2.9 2.7-6.6 4.2-10.6 4.2s-7.7-1.5-10.6-4.2c-1.4-1.3-2.5-2.9-3.2-4.7-.7-1.8-1.1-3.7-1.1-5.6-.1-1.9.3-3.9 1-5.6.7-1.8 1.8-3.4 3.2-4.7 2.9-2.7 6.6-4.2 10.6-4.2s7.7 1.5 10.6 4.2c1.4 1.3 2.5 2.9 3.2 4.7.7 1.8 1.1 3.7 1 5.6.1 1.9-.3 3.9-1 5.6-.6 1.8-1.7 3.4-3.1 4.7zm-2.2-10.3c0-2.4-.9-4.7-2.5-6.5-.8-.8-1.7-1.5-2.7-2-1-.5-2.2-.7-3.3-.7-1.1 0-2.2.2-3.3.7-1 .5-2 1.1-2.7 2-1.6 1.8-2.5 4.1-2.5 6.5 0 2.4.9 4.7 2.5 6.5.8.8 1.7 1.5 2.7 2 1 .5 2.2.7 3.3.7 1.1 0 2.2-.2 3.3-.7 1-.5 2-1.1 2.7-2 .8-.9 1.5-1.9 1.9-3 .5-1.2.7-2.3.6-3.5zm19.3 7c.5.7 1.2 1.2 1.9 1.5.7.3 1.6.5 2.4.5.8 0 1.6-.1 2.3-.5.7-.3 1.4-.9 1.8-1.5 1.1-1.6 1.6-3.4 1.5-5.3V10.8h6.3v15.8c0 4.1-1.1 7.2-3.4 9.4-1.2 1.1-2.5 2-4 2.5-1.5.6-3.1.8-4.7.8s-3.2-.2-4.7-.8c-1.5-.6-2.9-1.4-4-2.5-2.3-2.2-3.4-5.3-3.4-9.4V10.8h6.3v15.6c0 1.9.6 3.8 1.7 5.3zm44.5-17.3c2.7 2.5 4.1 5.9 4.1 10.3s-1.3 7.9-3.9 10.5c-2.6 2.6-6.7 3.8-12 3.8h-9.8V10.7h10c5 0 8.9 1.2 11.6 3.7zm-4.6 16.8c1.5-1.4 2.3-3.6 2.3-6.4s-.8-4.9-2.3-6.4-3.9-2.3-7.1-2.3h-3.5v17.2h4c2.4.2 4.8-.5 6.6-2.1zm44.6-20.5h6.3V39h-6.3l-13.5-17.7V39h-6.3V10.7h5.9l13.9 18.2V10.7zm33.4 28.2l-2.7-6.1h-11.9l-2.7 6.1h-6.8l12.2-28.3h6.1L303 38.9h-6.5zM288 19.1l-3.5 8.2h7l-3.5-8.2zm28.5-2.9V39h-6.3V16.2h-8v-5.4h22.4v5.4h-8.1zm12.5-5.5h6.3V39H329V10.7zm23.8 18l7.2-18h6.9L355.6 39h-5.3L339 10.7h6.9l6.9 18zm37.7-18v5.6h-14.1v5.8h12.7v5.4h-12.7v5.9H391V39h-20.8V10.8l20.3-.1c0 .1 0 0 0 0zM91.6 63c.8 0 1.6-.2 2.4-.5.7-.4 1.4-.9 1.9-1.6l2.3 2.4c-.8.9-1.7 1.7-2.9 2.2-1.1.5-2.3.8-3.5.8-1.1 0-2.2-.1-3.2-.5s-2-1-2.8-1.8c-.8-.7-1.4-1.6-1.8-2.6-.4-1-.6-2.1-.6-3.2s.2-2.2.6-3.2c.4-1 1-1.9 1.8-2.7.8-.8 1.7-1.4 2.7-1.8 1-.4 2.1-.6 3.2-.6 1.2 0 2.5.2 3.6.7 1.1.5 2.1 1.3 3 2.2l-2.2 2.5c-.5-.7-1.1-1.2-1.8-1.6-.7-.4-1.5-.5-2.4-.5-1.3 0-2.5.5-3.4 1.3-.5.4-.9 1-1.1 1.6-.2.6-.4 1.3-.3 1.9 0 .6.1 1.3.3 1.9.2.6.6 1.2 1 1.6.4.4.9.8 1.5 1s1.1.5 1.7.5zm22.3.9c-1.6 1.5-3.7 2.4-5.9 2.4-1.1 0-2.2-.2-3.2-.6-1-.4-1.9-1-2.7-1.8-1.5-1.5-2.4-3.6-2.4-5.8s.9-4.3 2.4-5.8c1.6-1.5 3.7-2.4 5.9-2.4 1.1 0 2.2.2 3.2.6s1.9 1 2.7 1.8c1.5 1.5 2.4 3.6 2.4 5.8s-.9 4.3-2.4 5.8zm-1.1-5.8c0-1.3-.4-2.6-1.3-3.6-.4-.5-.9-.8-1.5-1.1-.6-.3-1.2-.4-1.8-.4-.6 0-1.3.1-1.8.4-.6.3-1.1.7-1.5 1.2-.5.5-.8 1-1 1.7-.2.6-.3 1.3-.3 1.9 0 1.3.5 2.6 1.3 3.6.4.5.9.8 1.5 1.1.6.3 1.2.4 1.8.4.6 0 1.3-.1 1.8-.4.6-.3 1.1-.7 1.5-1.2.8-.9 1.3-2.2 1.3-3.6zm20.7-2l-4.3 8.7h-2.1l-4.3-8.7v10h-3.5V50.3h4.8l4.1 8.7 4.1-8.7h4.8v15.9h-3.5l-.1-10.1zm18.4-4.3c.6.5 1.1 1.2 1.4 2 .3.8.4 1.6.3 2.4 0 2-.6 3.4-1.7 4.3-1.1 1-2.9 1.3-5.2 1.3h-2.1v4.4H141V50.3h5.6c2.4 0 4.1.5 5.3 1.5zm-2.6 6.2c.5-.6.7-1.3.7-2.1 0-.4 0-.7-.2-1.1-.2-.3-.4-.6-.7-.8-.8-.4-1.7-.6-2.6-.6h-2v5.3h2.4c.4 0 .9 0 1.3-.1.4-.2.8-.4 1.1-.6zm11.3 4c.3.4.6.6 1.1.8.4.2.9.3 1.3.3.5 0 .9-.1 1.3-.3.4-.2.8-.5 1.1-.8.6-.9.9-2 .9-3v-8.8h3.5V59c.1 1-.1 1.9-.4 2.9-.3.9-.8 1.8-1.5 2.5-1.3 1.2-3.1 1.8-4.9 1.8-1.8 0-3.5-.7-4.8-1.9-.7-.7-1.2-1.6-1.5-2.5-.3-.9-.5-1.9-.4-2.9v-8.8h3.5v8.8c-.2 1.1.1 2.2.8 3.1zm19.5-8.6v12.7h-3.5V53.4h-4.5v-3h12.6v3h-4.6zm7.1-3.1h3.5v15.9h-3.5V50.3zm18.5 0h3.5v15.9h-3.5l-7.5-9.9v9.9h-3.5V50.3h3.3l7.8 10.2-.1-10.2c.1 0 0 0 0 0zm17.8 7.8h3.5v5.6c-.8.9-1.9 1.6-3 2-1.1.5-2.4.7-3.6.6-2.2 0-4.3-.8-5.9-2.3-.8-.7-1.4-1.6-1.8-2.6-.4-1-.6-2.1-.6-3.2s.2-2.2.6-3.2c.4-1 1-1.9 1.8-2.7s1.7-1.4 2.7-1.8c1-.4 2.1-.6 3.2-.6 2.2 0 4.3.8 5.9 2.3l-1.8 2.7c-.5-.6-1.2-1-2-1.2-.6-.2-1.3-.4-1.9-.4-1.3 0-2.5.5-3.4 1.3-.5.5-.9 1-1.1 1.7s-.4 1.3-.3 2c0 1.3.4 2.6 1.3 3.6.4.4.9.8 1.4 1 .5.2 1.1.3 1.7.3 1.1.1 2.1-.2 3-.7V58h.3zm23.5-7.8v3.1h-7.3v3.4h6.9V60h-6.9v6.2h-3.5V50.3H247zm16.4 13.6c-1.6 1.5-3.7 2.4-5.9 2.4-1.1 0-2.2-.2-3.2-.6-1-.4-1.9-1-2.7-1.8-1.5-1.5-2.4-3.6-2.4-5.8s.9-4.3 2.4-5.8c1.6-1.5 3.7-2.4 5.9-2.4 1.1 0 2.2.2 3.2.6s1.9 1 2.7 1.8c1.5 1.5 2.4 3.6 2.4 5.8s-.9 4.3-2.4 5.8zm-1.3-5.8c0-1.3-.4-2.6-1.3-3.6-.4-.5-.9-.8-1.5-1.1-.6-.3-1.2-.4-1.8-.4-.6 0-1.3.1-1.8.4-.6.3-1.1.7-1.5 1.2-.5.5-.8 1-1 1.7s-.3 1.3-.3 1.9c0 1.3.5 2.6 1.3 3.6.4.5.9.8 1.5 1.1.6.3 1.2.4 1.8.4.6 0 1.3-.1 1.8-.4.6-.3 1.1-.7 1.5-1.2.5-.5.8-1 1-1.7s.4-1.2.3-1.9zM273 62c.3.4.6.6 1.1.8.4.2.9.3 1.3.3s.9-.1 1.3-.3c.4-.2.8-.5 1.1-.8.6-.9.9-2 .9-3v-8.8h3.5V59c.1 1-.1 1.9-.4 2.9-.3.9-.8 1.8-1.5 2.5-1.3 1.2-3.1 1.8-4.9 1.8-1.8 0-3.5-.7-4.8-1.9-.7-.7-1.2-1.6-1.5-2.5-.3-.9-.5-1.9-.4-2.9v-8.8h3.5v8.8c-.2 1.1.1 2.3.8 3.1zm23.9-11.7h3.5v15.9h-3.5l-7.5-9.9v9.9h-3.5V50.3h3.3l7.8 10.2-.1-10.2c.1 0 0 0 0 0zm19.5 2.1c.8.7 1.4 1.7 1.8 2.7s.6 2.1.5 3.1c.1 1.1-.1 2.1-.5 3.1s-1 1.9-1.7 2.7c-1.4 1.4-3.7 2.2-6.8 2.2h-5.4V50.3h5.6c2.9 0 5.1.7 6.5 2.1zm-2.6 9.5c.4-.5.8-1 1-1.6.2-.6.3-1.3.3-1.9 0-.7-.1-1.3-.3-1.9s-.6-1.2-1-1.7c-.6-.5-1.2-.8-1.9-1s-1.4-.3-2.1-.2h-2v9.6h2.3c1.3-.1 2.7-.5 3.7-1.3zm18.8 4.2l-1.4-3.4h-6.7l-1.4 3.4h-3.8l6.9-15.9h3.4l6.9 15.9h-3.9zM327.8 55l-2 4.6h4l-2-4.6zm16-1.6v12.7h-3.5V53.4h-4.6v-3h12.6v3h-4.5zm7-3.1h3.5v15.9h-3.5V50.3zm20.8 13.6c-1.6 1.5-3.7 2.4-5.9 2.4-1.1 0-2.2-.2-3.2-.6s-1.9-1-2.7-1.8c-1.5-1.5-2.4-3.6-2.4-5.8s.9-4.3 2.4-5.8c1.6-1.5 3.7-2.4 5.9-2.4 1.1 0 2.2.2 3.2.6 1 .4 1.9 1 2.7 1.8 1.5 1.5 2.4 3.6 2.4 5.8s-.9 4.3-2.4 5.8zm-1.1-5.8c0-1.3-.5-2.6-1.3-3.6-.4-.5-.9-.8-1.5-1.1-.6-.3-1.2-.4-1.8-.4-.6 0-1.3.1-1.8.4-.6.3-1.1.7-1.5 1.2-.5.5-.8 1-1 1.7s-.3 1.3-.3 1.9c0 1.3.5 2.6 1.3 3.6.4.5.9.8 1.5 1.1.6.3 1.2.4 1.8.4.6 0 1.3-.1 1.8-.4.6-.3 1.1-.7 1.5-1.2.8-.9 1.3-2.2 1.3-3.6zm17.6-7.8h3.5v15.9h-3.5l-7.5-9.9v9.9H377V50.3h3.3l7.8 10.2c.1 0 0-10.2 0-10.2z"/><path fill="#0086ff" d="M16.2 47.3H7.5v20.3h20.3v-8.7H16.2V47.3zm43.6.1v11.5H48.2v8.7h20.3V47.3l-8.7.1zM7.5 27.1h8.8l-.1-.1V15.5h11.6V6.8H7.5v20.3zM48.2 6.8v8.7h11.6v11.6h8.7V6.8H48.2z"/><path fill="#93eaff" d="M47 27.1L35.4 15.5h12.7V6.8H27.8v8.7l11.6 11.6H47zM36.6 47.3H29l9.6 9.6 1.9 2H27.8v8.7h20.4v-8.8l-5.8-5.7-5.8-5.8zm23.2-20.2v12.6l-2-2-9.6-9.6v7.7l5.7 5.7 5.8 5.8h8.8V27.1h-8.7zm-32 11.5L16.3 27.1H7.5v20.2h8.7V34.7l11.6 11.6v-7.7z"/></svg>